<?xml version="1.0" encoding="iso-8859-1"?>
<!-- Generator: Adobe Illustrator 19.0.0, SVG Export Plug-In . SVG Version: 6.00 Build 0)  -->
<svg version="1.1" id="giftcard" xmlns="http://www.w3.org/2000/svg" xmlns:xlink="http://www.w3.org/1999/xlink" x="0px" y="0px"
	 viewBox="0 0 495 495" style="enable-background:new 0 0 495 495;" xml:space="preserve">
<g>
	<path style="fill:#00EED1;" d="M239.958,233.163l-18.74-0.006c-0.217,0-0.472-0.001-0.749-0.005h-0.234
		c-0.385,0.02-0.766,0.032-1.151,0.032c-0.419,0-0.834-0.022-1.251-0.032H0v191.959h247.5V233.163
		C244.897,233.163,242.363,233.163,239.958,233.163z"/>
	<path style="fill:#00DDC2;" d="M376.582,233.184c-0.393,0-0.781-0.012-1.17-0.032h-0.186c-0.29,0.004-0.555,0.005-0.779,0.005
		l-18.74,0.006c-2.507,0-5.155,0-7.875,0v102.595h-40V233.155c-6.041-0.002-9.951-0.003-10-0.003c-0.049,0-3.959,0.001-10,0.003
		v62.603h-40v-62.595c-0.111,0-0.222,0-0.333,0v191.948H495V233.152H377.833C377.416,233.162,377.002,233.184,376.582,233.184z"/>
	<path style="fill:#00CCB3;" d="M230.102,192.954l0.136,0.198h17.113l-20.721-19.476c-1.516-1.352-4.032-2.919-7.545-2.919
		c-6.184,0-11.214,5.03-11.214,11.213c0,5.951,4.663,10.823,10.525,11.182h1.121L230.102,192.954z"/>
	<path style="fill:#00CCB3;" d="M365.429,193.152l0.136-0.198l10.586,0.198h1.121c5.862-0.359,10.524-5.231,10.524-11.182
		c0-6.183-5.03-11.213-11.214-11.213c-3.513,0-6.029,1.567-7.545,2.919l-20.721,19.476H365.429z"/>
	<path style="fill:#00CCB3;" d="M247.5,69.889H0v123.263h169.115c-0.805-3.602-1.244-7.34-1.244-11.182
		c0-28.239,22.975-51.213,51.214-51.213c12.777,0,25.051,4.765,34.56,13.418l0.236,0.219l43.954,41.312l44.188-41.53
		c9.509-8.653,21.782-13.418,34.56-13.418c28.239,0,51.214,22.974,51.214,51.213c0,3.841-0.439,7.58-1.244,11.182H495V69.889H247.5z
		"/>
	<path style="fill:#CD2A00;" d="M220.235,233.152h0.234c-0.055-0.001-0.105-0.001-0.163-0.002
		C220.282,233.151,220.259,233.151,220.235,233.152z"/>
	<path style="fill:#CD2A00;" d="M169.115,193.152H0v20v20h217.833C193.991,232.576,174.144,215.636,169.115,193.152z"/>
	<path style="fill:#CD2A00;" d="M375.227,233.152h0.186c-0.018-0.001-0.036,0-0.054-0.001
		C375.312,233.151,375.272,233.151,375.227,233.152z"/>
	<path style="fill:#CD2A00;" d="M219.333,193.155l0.183-0.003h-1.121c0.099,0.006,0.196,0.021,0.295,0.025
		C218.906,193.167,219.118,193.159,219.333,193.155z"/>
	<path style="fill:#CD2A00;" d="M230.245,193.163c2.564,0,5.754,0,9.713,0c2.363,0,4.849,0,7.404,0
		C247.351,193.152,230.238,193.152,230.245,193.163z"/>
	<path style="fill:#CD2A00;" d="M348.304,193.163c2.556,0,5.041,0,7.404,0c3.959,0,7.148,0,9.713,0
		C365.429,193.152,348.316,193.152,348.304,193.163z"/>
	<path style="fill:#CD2A00;" d="M377.833,233.152H495v-20v-20h-68.448C421.523,215.636,401.676,232.576,377.833,233.152z"/>
	<path style="fill:#CD2A00;" d="M376.333,193.155c0.216,0.004,0.43,0.011,0.644,0.021c0.1-0.003,0.196-0.019,0.295-0.025h-1.121
		L376.333,193.155z"/>
	<path style="fill:#FF3501;" d="M217.833,233.152c0.417,0.01,0.831,0.032,1.251,0.032c0.385,0,0.766-0.012,1.151-0.032
		c0.024-0.001,0.047-0.001,0.071-0.002c0.058,0.001,0.107,0.001,0.163,0.002c0.278,0.004,0.533,0.005,0.749,0.005l18.74,0.006
		c2.405,0,4.939,0,7.542,0c0.111,0,0.222,0,0.333,0v62.595h40v-62.603c6.041-0.002,9.951-0.003,10-0.003
		c-0.007,0-50.465-0.017-50.465-0.017l50.466-47.43l-43.954-41.312l-0.236-0.219c-9.509-8.653-21.782-13.418-34.56-13.418
		c-28.239,0-51.214,22.974-51.214,51.213c0,3.841,0.439,7.58,1.244,11.182C174.144,215.636,193.991,232.576,217.833,233.152z
		 M207.87,181.97c0-6.183,5.03-11.213,11.214-11.213c3.513,0,6.029,1.567,7.545,2.919l20.721,19.476
		c-2.544,0.011-5.029,0.011-7.392,0.011c-3.959,0-7.148,0-9.713,0c-0.007-0.011-0.144-0.209-0.144-0.209l-10.586,0.198l-0.183,0.003
		c-0.215,0.004-0.428,0.011-0.643,0.021c-0.1-0.003-0.196-0.019-0.295-0.025C212.533,192.793,207.87,187.921,207.87,181.97z"/>
	<path style="fill:#FF5023;" d="M247.368,233.135l50.458,0.017c0.056,0,3.966,0.001,10.007,0.003v102.603h40V233.163
		c2.72,0,5.368,0,7.875,0l18.74-0.006c0.224,0,0.489-0.001,0.779-0.005c0.045,0,0.085-0.001,0.132-0.001
		c0.018,0.001,0.036,0,0.054,0.001c0.388,0.019,0.777,0.032,1.17,0.032c0.419,0,0.834-0.022,1.251-0.032
		c23.843-0.576,43.69-17.516,48.719-40c0.806-3.602,1.244-7.34,1.244-11.182c0-28.239-22.975-51.213-51.214-51.213
		c-12.777,0-25.051,4.765-34.56,13.418l-44.188,41.53L247.368,233.135z M376.582,170.757c6.184,0,11.214,5.03,11.214,11.213
		c0,5.95-4.662,10.823-10.524,11.182c-0.099,0.006-0.196,0.021-0.295,0.025c-0.214-0.01-0.428-0.018-0.644-0.021l-0.182-0.003
		l-10.586-0.198l-0.136,0.198c-2.572,0.011-5.761,0.011-9.72,0.011c-2.363,0-4.849,0-7.404,0
		c0.012-0.011,20.733-19.487,20.733-19.487C370.553,172.325,373.07,170.757,376.582,170.757z"/>
</g>
<g>
</g>
<g>
</g>
<g>
</g>
<g>
</g>
<g>
</g>
<g>
</g>
<g>
</g>
<g>
</g>
<g>
</g>
<g>
</g>
<g>
</g>
<g>
</g>
<g>
</g>
<g>
</g>
<g>
</g>
</svg>
