<?xml version="1.0" encoding="iso-8859-1"?>
<!-- Generator: Adobe Illustrator 16.0.0, SVG Export Plug-In . SVG Version: 6.00 Build 0)  -->
<!DOCTYPE svg PUBLIC "-//W3C//DTD SVG 1.1//EN" "http://www.w3.org/Graphics/SVG/1.1/DTD/svg11.dtd">
<svg xmlns="http://www.w3.org/2000/svg" xmlns:xlink="http://www.w3.org/1999/xlink" version="1.1" id="rocket" x="0px" y="0px" width="512px" height="512px" viewBox="0 0 532.573 532.574" style="enable-background:new 0 0 532.573 532.574;" xml:space="preserve">
<g>
	<g>
		<path d="M302.813,35.591c-0.935-0.139-1.805,0.036-2.629,0.344c-13.906-20.753-28.059-33.576-29.214-34.612    c-1.175-1.048-2.674-1.441-4.125-1.292c-1.458-0.149-2.969,0.25-4.146,1.292c-1.144,1.021-14.966,13.562-28.704,33.869    c-0.322-0.016-0.619-0.105-0.947-0.069C109.578,51.538,16.459,157.999,16.459,282.754c0,70.195,29.145,133.672,75.917,179.095    c0.548,1.769,1.929,3.085,3.729,3.558c44.644,41.629,104.466,67.167,170.181,67.167c65.568,0,125.279-25.424,169.895-66.895h1.155    c2.971,0,5.376-2.402,5.376-5.373c0-0.254-0.117-0.473-0.148-0.716c45.397-45.255,73.551-107.827,73.551-176.841    C516.114,159.671,424.411,53.404,302.813,35.591z M342.258,243.565c-0.073,0.37-0.221,0.722-0.221,1.113    c0,2.968,2.405,5.375,5.376,5.375h15.953v57.043h-1.312c-2.399-17.696-16.425-31.722-34.126-34.116V144.4l14.109,14.105v83.952    C342.037,242.856,342.185,243.2,342.258,243.565z M396.632,307.101h-22.515V257.66l22.515,22.517V307.101z M341.071,341.626    c-2.277-1.994-4.823-3.664-7.611-4.934h18.253v4.934H341.071z M239.343,352.377h6.303c2.966,0,5.375-2.404,5.375-5.375v-29.146    h31.636v29.146c0,2.971,2.404,5.375,5.376,5.375h4.131c-1.176,2.629-2.116,5.396-2.52,8.347    c-10.546-2.835-22.174,0.341-29.791,7.758c-4.732-6.971-12.17-11.853-20.566-13.307c0.076-0.787,0.112-1.574,0.112-2.368    C239.398,352.656,239.349,352.524,239.343,352.377z M137.045,307.101v-26.925l22.513-22.517v49.441H137.045z M170.313,250.053    h15.948c2.974,0,5.375-2.407,5.375-5.375c0-0.391-0.139-0.743-0.226-1.113c0.087-0.37,0.226-0.72,0.226-1.113v-83.946    l14.105-14.105v128.584c-17.695,2.399-31.714,16.421-34.116,34.116h-1.312V250.053z M241.466,43.68h19.999v41.392    c-16.085,2.821-28.345,16.85-28.345,33.73c0,1.779,0.171,3.509,0.441,5.215h-17.063v-5.215    C216.488,89.473,228.718,63.166,241.466,43.68z M317.177,134.778v138.207c-17.69,2.399-31.711,16.421-34.11,34.116h-10.3V152.625    c10.829-1.715,19.989-8.494,24.939-17.851h19.471V134.778z M351.713,325.931h-58.306v-13.455    c0-16.069,13.076-29.149,29.146-29.149c16.072,0,29.16,13.08,29.16,29.149V325.931z M250.617,307.101    c-2.401-17.695-16.428-31.722-34.124-34.116V134.778h20.583c4.95,9.357,14.105,16.131,24.942,17.851v154.477L250.617,307.101    L250.617,307.101z M181.962,325.931v-13.455c0-16.069,13.084-29.149,29.15-29.149c16.074,0,29.158,13.08,29.158,29.149v13.455    H181.962z M181.962,336.682h10.623c-1.21,1.532-2.252,3.169-3.097,4.944h-7.52v-4.944H181.962z M213.139,337.306    c4.149,0,7.908,1.664,10.688,4.32h-21.369C205.249,338.965,208.994,337.306,213.139,337.306z M233.7,336.682h6.57v4.944h-3.473    C235.953,339.851,234.91,338.214,233.7,336.682z M293.407,341.626v-4.934h14.39c-2.856,1.285-5.534,2.896-7.849,4.934H293.407z     M317.177,124.027h-15.947c0.262-1.706,0.441-3.436,0.441-5.215c0-17.26-12.842-31.541-29.455-33.904V43.68h19.989    c12.745,19.48,24.972,45.788,24.972,75.127V124.027L317.177,124.027z M266.841,12.268c3.722,3.714,10.45,10.864,17.82,20.672    h-35.646C256.391,23.132,263.121,15.981,266.841,12.268z M431.893,454.93H100.675C55.441,411.412,27.21,350.334,27.21,282.754    c0-116.713,85.185-216.654,199.396-235.735c-11.299,19.562-20.864,44.234-20.864,71.793v10.386l-23.281,23.28    c-0.493,0.494-0.879,1.092-1.16,1.746c-0.272,0.657-0.415,1.357-0.415,2.055v83.027h-15.948c-0.698,0-1.396,0.145-2.052,0.416    c-0.657,0.272-1.254,0.666-1.748,1.16l-33.264,33.264c-0.493,0.493-0.887,1.091-1.16,1.748c-0.281,0.654-0.415,1.353-0.415,2.052    v34.525c0,2.966,2.402,5.376,5.375,5.376h39.547v29.15c0,2.96,2.409,5.373,5.375,5.373h10.341c0,0.143-0.042,0.285-0.042,0.426    c0,4.594,1.199,9.035,3.43,12.951c-5.886,4.871-9.375,12.078-9.436,19.947c-8.879-1.019-17.706,1.082-25.133,5.821    c-8.331-5.317-18.486-7.291-28.36-5.308c-5.032-15.102-18.824-25.741-35.005-26.52c-6.242-13.853-20.04-22.908-35.478-22.908    c-2.966,0-5.375,2.399-5.375,5.376c0,2.966,2.41,5.375,5.375,5.375c12.145,0,22.884,7.742,26.732,19.275    c0.769,2.29,2.974,3.775,5.371,3.664l1.472-0.078c13.741,0,25.416,9.827,27.754,23.37c0.268,1.565,1.221,2.929,2.585,3.731    c1.375,0.794,3.032,0.951,4.533,0.405c9.373-3.392,19.486-1.595,27.053,4.42c1.958,1.553,4.725,1.553,6.683,0    c7.444-5.916,17.357-7.731,26.569-4.589c1.924,0.646,4.087,0.158,5.525-1.291c1.451-1.459,1.947-3.595,1.292-5.537    c-0.559-1.648-0.851-3.328-0.851-5.009c0-5.952,3.344-11.302,8.73-13.922c1.543-0.761,2.63-2.188,2.937-3.878    c0.299-1.685-0.21-3.412-1.394-4.65c-2.75-2.898-4.263-6.679-4.263-10.647c0-0.141,0.037-0.283,0.042-0.426h30.922    c0.016,0.148,0.052,0.285,0.052,0.432c0,1.843-0.339,3.685-1.01,5.466c-0.646,1.706-0.16,3.626,0.929,5.08    c1.092,1.47,3.047,2.257,4.893,2.147l0.564-0.026c9.042,0,17.11,6.068,19.609,14.761c0.609,2.101,2.431,3.628,4.606,3.854    c2.134,0.205,4.273-0.888,5.303-2.824c3.562-6.698,10.47-10.855,18.039-10.855c3.732,0,7.412,1.033,10.641,3.013    c1.784,1.093,4.032,1.056,5.759-0.1c1.743-1.15,2.655-3.212,2.356-5.266c-0.141-0.992-0.252-1.995-0.252-3.023    c0-4.804,1.722-9.159,4.516-12.657h31.847c2.772,3.487,4.516,7.854,4.516,12.657c0,3.864-1.114,7.643-3.208,10.925    c-0.924,1.454-1.093,3.249-0.462,4.859c0.642,1.597,1.995,2.805,3.68,3.235c9.749,2.498,17.48,10.084,20.158,19.8    c0.529,1.9,2.057,3.376,3.988,3.816c0.395,0.095,0.794,0.136,1.197,0.136c1.532,0,3.03-0.66,4.059-1.852    c5.376-6.189,13.128-9.744,21.28-9.744c5.02,0,9.969,1.371,14.342,3.964c1.585,0.944,3.543,0.997,5.187,0.152    c1.648-0.845,2.74-2.467,2.908-4.305c1.322-14.608,13.382-25.627,28.068-25.627c1.339,0,2.641,0.119,3.932,0.309    c2.44,0.33,4.824-1.033,5.738-3.343c4.293-10.82,14.572-17.807,26.195-17.807c2.96,0,5.375-2.409,5.375-5.375    c0-2.977-2.415-5.376-5.375-5.376c-14.673,0-27.817,8.068-34.489,20.872c-0.463-0.016-0.925-0.026-1.392-0.026    c-17.743,0-32.725,11.659-37.407,28.101c-12.116-4.352-26.127-2.173-36.336,5.438c-4.063-7.702-10.637-13.859-18.604-17.407    c1.25-3.443,1.911-7.061,1.911-10.751c0-4.514-0.986-8.799-2.708-12.655h8.073c2.961,0,5.374-2.415,5.374-5.376v-12.756    c0.568-0.861,0.999-1.833,0.999-2.939c0-1.104-0.41-2.08-0.999-2.935v-10.521h39.551c2.971,0,5.375-2.409,5.375-5.375V277.94    c0-0.698-0.147-1.396-0.42-2.052c-0.273-0.656-0.662-1.254-1.155-1.748l-33.271-33.263c-0.494-0.494-1.092-0.887-1.743-1.16    c-0.66-0.276-1.354-0.415-2.057-0.415h-15.948V156.28c0-0.698-0.147-1.398-0.409-2.055c-0.283-0.653-0.671-1.252-1.164-1.746    l-23.276-23.28v-10.386c0-27.452-9.502-52.051-20.736-71.573C420.589,66.833,505.368,166.986,505.368,282.76    C505.362,350.334,477.132,411.412,431.893,454.93z" fill="#FFFFFF"/>
	</g>
</g>
<g>
</g>
<g>
</g>
<g>
</g>
<g>
</g>
<g>
</g>
<g>
</g>
<g>
</g>
<g>
</g>
<g>
</g>
<g>
</g>
<g>
</g>
<g>
</g>
<g>
</g>
<g>
</g>
<g>
</g>
</svg>
