<?xml version="1.0" encoding="utf-8"?>
<!-- Generator: Adobe Illustrator 16.0.0, SVG Export Plug-In . SVG Version: 6.00 Build 0)  -->
<!DOCTYPE svg PUBLIC "-//W3C//DTD SVG 1.1 Tiny//EN" "http://www.w3.org/Graphics/SVG/1.1/DTD/svg11-tiny.dtd">
<svg xmlns="http://www.w3.org/2000/svg" xmlns:xlink="http://www.w3.org/1999/xlink" version="1.1" baseProfile="tiny" id="Layer_1" x="0px" y="0px" width="512px" height="512px" viewBox="0 0 24 24" xml:space="preserve">
<g>
	<path d="M22.853,1.267c-0.242-0.287-0.611-0.421-1.051-0.348c-0.077,0.013-1.893,0.316-3.247,1.004l-0.404,0.206   c-0.168,0.1-0.289,0.247-0.383,0.413c-0.113-0.045-0.243-0.045-0.355,0.024c-2.774,1.695-4.392,3.402-4.458,3.474   c-0.39,0.414-0.961,1.143-1.274,1.624l-0.377,0.581L7.787,8.062c-0.644-0.04-1.542,0.303-2.01,0.77l-4.496,4.476   c-0.205,0.203-0.547,0.544-0.284,0.874c0.265,0.334,0.672,0.074,0.916-0.079l0.823-0.518c0.429-0.271,1.206-0.592,1.748-0.714   c0.407-0.092,1.02,0.085,1.313,0.378l1.313,1.308L6.707,15.16c-0.172,0.259-0.702,1.137-0.277,1.568l0.767,0.773   c0.119,0.119,0.272,0.165,0.438,0.165c0.431,0,0.943-0.309,1.13-0.433l0.598-0.395l1.373,1.369c0.293,0.292,0.468,0.902,0.36,1.358   c-0.115,0.492-0.441,1.269-0.712,1.694l-0.526,0.827c-0.155,0.243-0.414,0.65-0.084,0.915c0.086,0.069,0.172,0.097,0.257,0.097   c0.241,0,0.467-0.226,0.618-0.376l4.496-4.478c0.467-0.466,0.81-1.348,0.781-2.006l-0.162-3.645l0.476-0.322   c0.471-0.318,1.196-0.883,1.617-1.258c0.074-0.065,1.828-1.641,3.544-4.416c0.067-0.108,0.07-0.233,0.03-0.344   c0.169-0.098,0.314-0.237,0.421-0.418l0.196-0.38c0.7-1.356,1.018-3.178,1.031-3.255C23.14,1.846,23.06,1.513,22.853,1.267z    M6.361,12.682c-0.485-0.483-1.386-0.74-2.105-0.581c-0.274,0.063-0.608,0.173-0.938,0.307L6.34,9.398   C6.651,9.089,7.32,8.834,7.745,8.86l3.055,0.16l-0.135,0.208c0,0,0,0.001,0,0.001l-3.102,4.648L6.361,12.682z M15.126,16.276   c0.019,0.438-0.236,1.095-0.547,1.404l-3.02,3.008c0.139-0.339,0.256-0.689,0.328-0.991c0.156-0.668-0.102-1.57-0.587-2.055   l-1.256-1.253l4.855-3.204c0.004-0.003,0.006-0.008,0.011-0.011l0.076-0.052L15.126,16.276z M17.325,10.419   c-0.399,0.355-1.087,0.891-1.533,1.193l-1.48,1.003c0,0,0,0.001-0.001,0.001l-5.986,3.95c-0.277,0.183-0.519,0.271-0.637,0.294   l-0.612-0.618c0.023-0.118,0.113-0.36,0.298-0.639l3.96-5.936c0-0.001,0-0.001,0.001-0.002s0.001-0.001,0.002-0.002L12.351,8.1   c0.286-0.44,0.829-1.132,1.186-1.511c0.015-0.018,1.541-1.615,4.089-3.21c0.038,0.201,0.117,0.399,0.242,0.577   c0.015,0.021,0.375,0.531,0.999,1.163c0.624,0.633,1.128,0.997,1.149,1.013c0.179,0.129,0.379,0.198,0.583,0.236   C18.985,8.916,17.341,10.403,17.325,10.419z M22.291,2.069c-0.003,0.018-0.311,1.777-0.954,3.022l-0.185,0.359   c-0.082,0.138-0.227,0.158-0.306,0.158c-0.121,0-0.25-0.045-0.364-0.127c-0.005-0.004-0.474-0.344-1.047-0.926   c-0.573-0.58-0.91-1.056-0.913-1.06c-0.104-0.148-0.146-0.317-0.114-0.463c0.021-0.098,0.071-0.17,0.128-0.204l0.381-0.194   c1.242-0.63,2.997-0.925,3.106-0.936c0.067,0,0.16,0.015,0.217,0.082C22.294,1.845,22.312,1.946,22.291,2.069z" fill="#FFFFFF"/>
	<path d="M4.744,16.863c-0.243,0-0.691,0.033-0.964,0.26c-1.289,1.068-2.597,4.464-2.651,4.608c-0.17,0.445-0.073,0.731,0.038,0.893   c0.135,0.196,0.355,0.305,0.621,0.305c0.135,0,0.28-0.028,0.434-0.084c0.771-0.278,4.63-1.744,4.878-3.272   c0.134-0.985-0.187-1.592-0.48-1.928C6.191,17.155,5.49,16.863,4.744,16.863z M6.307,19.454c-0.126,0.779-2.625,2.012-4.358,2.639   c-0.044,0.016-0.079,0.024-0.106,0.029c0.006-0.027,0.016-0.063,0.032-0.105c0.354-0.927,1.479-3.501,2.412-4.275   c0.037-0.025,0.198-0.078,0.457-0.078c0.194,0,0.861,0.036,1.272,0.508C6.284,18.478,6.381,18.912,6.307,19.454z" fill="#FFFFFF"/>
	<path d="M14.213,9.174l-2.933,2.933c-0.156,0.156-0.156,0.41,0,0.566c0.078,0.078,0.18,0.117,0.283,0.117s0.205-0.039,0.283-0.117   l2.933-2.933c0.156-0.156,0.156-0.41,0-0.566S14.37,9.018,14.213,9.174z" fill="#FFFFFF"/>
</g>
</svg>
